<?xml version="1.0" encoding="UTF-8" standalone="no"?>
<svg
   width="849.11798"
   height="1417.524"
   viewBox="0 0 849.11798 1417.5241"
   version="1.1"
   id="svg34"
   sodipodi:docname="light-bulb-off.svg"
   inkscape:version="1.3.2 (1:1.3.2+202311252150+091e20ef0f)"
   xmlns:inkscape="http://www.inkscape.org/namespaces/inkscape"
   xmlns:sodipodi="http://sodipodi.sourceforge.net/DTD/sodipodi-0.dtd"
   xmlns="http://www.w3.org/2000/svg"
   xmlns:svg="http://www.w3.org/2000/svg">
  <sodipodi:namedview
     id="namedview34"
     pagecolor="#ffffff"
     bordercolor="#000000"
     borderopacity="0.25"
     inkscape:showpageshadow="2"
     inkscape:pageopacity="0.0"
     inkscape:pagecheckerboard="0"
     inkscape:deskcolor="#d1d1d1"
     inkscape:zoom="0.3755389"
     inkscape:cx="11.98278"
     inkscape:cy="862.76015"
     inkscape:window-width="1920"
     inkscape:window-height="1043"
     inkscape:window-x="1920"
     inkscape:window-y="0"
     inkscape:window-maximized="1"
     inkscape:current-layer="svg34" />
  <defs
     id="defs33">
    <radialGradient
       id="radial-pattern-0"
       gradientUnits="userSpaceOnUse"
       cx="0"
       cy="0"
       fx="0"
       fy="0"
       r="2092.1599"
       gradientTransform="matrix(1.199999,0,0,0.800001,1500,1000)">
      <stop
         offset="0"
         stop-color="rgb(100%, 100%, 100%)"
         stop-opacity="1"
         id="stop1" />
      <stop
         offset="0.5"
         stop-color="rgb(100%, 100%, 100%)"
         stop-opacity="1"
         id="stop2" />
      <stop
         offset="0.5625"
         stop-color="rgb(99.822998%, 99.942017%, 99.987793%)"
         stop-opacity="1"
         id="stop3" />
      <stop
         offset="0.589844"
         stop-color="rgb(99.578857%, 99.864197%, 99.972534%)"
         stop-opacity="1"
         id="stop4" />
      <stop
         offset="0.640625"
         stop-color="rgb(99.365234%, 99.794006%, 99.946594%)"
         stop-opacity="1"
         id="stop5" />
      <stop
         offset="0.648438"
         stop-color="rgb(99.215698%, 99.737549%, 99.766541%)"
         stop-opacity="1"
         id="stop6" />
      <stop
         offset="0.65625"
         stop-color="rgb(99.205017%, 99.591064%, 99.520874%)"
         stop-opacity="1"
         id="stop7" />
      <stop
         offset="0.664062"
         stop-color="rgb(99.043274%, 99.346924%, 99.40033%)"
         stop-opacity="1"
         id="stop8" />
      <stop
         offset="0.683594"
         stop-color="rgb(98.843384%, 99.21875%, 99.195862%)"
         stop-opacity="1"
         id="stop9" />
      <stop
         offset="0.722656"
         stop-color="rgb(98.661804%, 99.150085%, 98.989868%)"
         stop-opacity="1"
         id="stop10" />
      <stop
         offset="0.730469"
         stop-color="rgb(98.458862%, 98.989868%, 98.907471%)"
         stop-opacity="1"
         id="stop11" />
      <stop
         offset="0.738281"
         stop-color="rgb(98.382568%, 98.774719%, 98.815918%)"
         stop-opacity="1"
         id="stop12" />
      <stop
         offset="0.769531"
         stop-color="rgb(98.374939%, 98.675537%, 98.735046%)"
         stop-opacity="1"
         id="stop13" />
      <stop
         offset="0.773438"
         stop-color="rgb(98.291016%, 98.640442%, 98.536682%)"
         stop-opacity="1"
         id="stop14" />
      <stop
         offset="0.785156"
         stop-color="rgb(98.088074%, 98.443604%, 98.310852%)"
         stop-opacity="1"
         id="stop15" />
      <stop
         offset="0.796875"
         stop-color="rgb(97.961426%, 98.213196%, 98.217773%)"
         stop-opacity="1"
         id="stop16" />
      <stop
         offset="0.820312"
         stop-color="rgb(97.956848%, 98.146057%, 98.188782%)"
         stop-opacity="1"
         id="stop17" />
      <stop
         offset="0.828125"
         stop-color="rgb(97.807312%, 98.100281%, 98.179626%)"
         stop-opacity="1"
         id="stop18" />
      <stop
         offset="0.835938"
         stop-color="rgb(97.613525%, 98.033142%, 98.05603%)"
         stop-opacity="1"
         id="stop19" />
      <stop
         offset="0.84375"
         stop-color="rgb(97.557068%, 97.886658%, 97.805786%)"
         stop-opacity="1"
         id="stop20" />
      <stop
         offset="0.863281"
         stop-color="rgb(97.45636%, 97.660828%, 97.633362%)"
         stop-opacity="1"
         id="stop21" />
      <stop
         offset="0.871094"
         stop-color="rgb(97.254944%, 97.528076%, 97.590637%)"
         stop-opacity="1"
         id="stop22" />
      <stop
         offset="0.886719"
         stop-color="rgb(97.084045%, 97.47467%, 97.581482%)"
         stop-opacity="1"
         id="stop23" />
      <stop
         offset="0.898438"
         stop-color="rgb(96.890259%, 97.409058%, 97.463989%)"
         stop-opacity="1"
         id="stop24" />
      <stop
         offset="0.910156"
         stop-color="rgb(96.630859%, 97.203064%, 97.206116%)"
         stop-opacity="1"
         id="stop25" />
      <stop
         offset="0.929688"
         stop-color="rgb(96.421814%, 96.94519%, 97.024536%)"
         stop-opacity="1"
         id="stop26" />
      <stop
         offset="0.945312"
         stop-color="rgb(96.340942%, 96.842957%, 96.894836%)"
         stop-opacity="1"
         id="stop27" />
      <stop
         offset="0.957031"
         stop-color="rgb(96.282959%, 96.813965%, 96.70105%)"
         stop-opacity="1"
         id="stop28" />
      <stop
         offset="0.964844"
         stop-color="rgb(96.087646%, 96.748352%, 96.591187%)"
         stop-opacity="1"
         id="stop29" />
      <stop
         offset="0.980469"
         stop-color="rgb(95.941162%, 96.560669%, 96.51947%)"
         stop-opacity="1"
         id="stop30" />
      <stop
         offset="0.988281"
         stop-color="rgb(95.928955%, 96.366882%, 96.400452%)"
         stop-opacity="1"
         id="stop31" />
      <stop
         offset="0.992188"
         stop-color="rgb(95.925903%, 96.313477%, 96.18988%)"
         stop-opacity="1"
         id="stop32" />
      <stop
         offset="1"
         stop-color="rgb(95.925903%, 96.305847%, 96.032715%)"
         stop-opacity="1"
         id="stop33" />
    </radialGradient>
  </defs>
  <path
     fill="none"
     stroke-width="12.9728"
     stroke-linecap="butt"
     stroke-linejoin="miter"
     stroke="#171720"
     stroke-opacity="1"
     stroke-miterlimit="10"
     d="m 277.05335,1310.9674 c 40.7695,50.961 96.3711,100.0704 153.8203,100.0704 57.4492,0 118.6094,-62.0821 144.5508,-111.1915 25.9492,-49.1093 -60.2305,-26.871 -124.1602,-25.9492 -63.9414,0.9297 -200.1601,16.6797 -200.1601,-24.0898 0,-40.7695 0,-59.3008 136.2187,-62.082 136.211,-2.7774 221.461,-4.6407 219.6094,-44.4805 -1.8477,-39.8477 -25.9492,-46.3281 -148.2578,-39.8477 -122.3203,6.4883 -211.2695,12.0508 -209.4219,-40.7695 1.8516,-52.8203 123.2422,-26.8711 261.3125,-26.8711 138.0664,0 135.2891,-65.78909 142.6992,-189.96092 7.4102,-124.168 154.75,-211.2696 184.3985,-390.1094 29.6523,-178.8399 -79.6875,-317.8281 -170.5,-375.281299 -80.1875,-50.726503 -278.918,-143.628903 -500.3789,12.9727 C -62.427156,255.45568 -6.497455,551.12758 92.654944,645.64708 c 99.148406,94.5196 111.199206,146.4102 118.609306,265.0196 7.4102,118.60152 54.7579,125.41792 203.8594,130.64842 52.8086,1.8516 99.1485,5.5625 101,-68.57029 1.8516,-74.12893 -17.6094,-95.43753 -12.9687,-156.59773 4.6289,-61.1601 -12.9805,-64.8593 -41.7032,-77.8398 -28.7265,-12.9727 -10.1875,-82.4727 -10.1875,-114.9024 0,-32.4297 22.2305,-41.6992 24.0899,-57.4492 1.8476,-15.75 -115.832,-18.5273 -110.2695,12.0508 5.5585,30.5703 29.1875,22.6992 29.1875,69.9609 0,47.25 8.3398,60.2305 -25.0196,75.0508 -33.3594,14.8281 2.6992,-17.6328 -16.9492,-88.7305 -19.6484,-71.1093 -67.8398,-87.7929 -79.8789,-153.582 -12.0508,-65.789 -44.4805,-117.6797 -47.2617,-88.0273 -2.7813,29.6484 19.4609,52.8164 52.8203,17.6093 33.3516,-35.2226 64.8594,0 85.25,0.918 20.3789,0.9297 3.4805,-24.4375 -13.5508,-26.1211 -17.0273,-1.6679 12.6211,44.6602 25.5899,66.8906 12.9726,22.2422 7.4101,51.9024 17.6093,77.8399 10.1914,25.9531 -1.8593,51.8906 11.1211,56.5312 12.9727,4.6289 28.7227,-7.4179 28.7227,24.0899 0,31.5 28.7265,-37.0703 38.9179,-86.1797 10.1915,-49.1094 8.3399,-73.1992 27.8008,-90.8086 19.461,-17.6016 20.8477,-46.793 -1.3906,-39.3828 -22.2383,7.4101 16.3203,42.1719 18.0703,18.0703 3.1485,-43.4297 -150.8203,-60.5 -156.6015,-19.457 -3.129,22.207 127.871,22.2383 188.1015,11.1172 60.2305,-11.1172 50.0391,35.2109 78.7695,7.4101 28.7188,-27.789 -24.0898,-41.6875 -41.6992,28.7305 -17.6094,70.4219 -47.3711,141.289 -83.9218,194.3515 -36.5391,53.0586 -14.2969,109.5782 -26.3477,163.3282 -12.0508,53.7422 2.7773,70.4219 3.707,136.2109 0.9219,65.78913 -41.6992,127.48832 -34.75,30.39063 6.9532,-97.10933 26.4102,-125.83203 39.3828,-106.37113 12.9688,19.461 -35.9218,34.4219 -80.9726,35.2813 -45.0469,0.8594 -50.6094,-19.5313 -26.5195,-26.0195 24.0898,-6.4805 25.9531,9.2695 25.9531,58.3789 0,49.10933 -2.7813,112.12112 -29.6524,75.05862 -26.8789,-37.07029 11.1094,-157.52742 0,-207.57032 -11.1211,-50.0274 -34.289,-32.4297 -35.2187,14.832 -0.9219,47.2578 15.7578,43.5508 4.6406,101 -11.1211,57.44923 10.1875,48.18753 4.6289,107.48832 -5.5586,59.3007 0.9297,67.6406 69.5,66.7226 68.5703,-0.9336 157.5195,54.668 25.0195,54.668 -132.5117,0 -172.371,62.082 -25.9492,62.082 73.1992,0 170.5,50.0391 5.5586,49.1094 -164.9375,-0.9219 -141.7695,52.8203 -14.8281,56.5273 126.9492,3.7032 126.9492,58.3829 3.707,51.8907 -53.7383,-3.711 -205.707,-138.0703 -131.5781,-46.3282 z m 0,0"
     id="path34" />
</svg>
